<svg width="296" height="120" viewBox="0 0 296 120" fill="none" xmlns="http://www.w3.org/2000/svg">
<circle cx="60" cy="60" r="60" fill="white"/>
<path fill-rule="evenodd" clip-rule="evenodd" d="M49.3154 68.4185C49.3154 68.4185 52.5146 70.3953 55.4138 71.9767V53.0987H50.2151C49.7153 53.0987 49.3154 53.4941 49.3154 53.9883V55.6685V68.4185ZM72.0093 59.622L70.6096 58.0406V53.5929C70.6096 53.5929 70.6096 53.2964 70.9097 53.2964C73.9089 53.1976 79.9072 49.9359 72.7092 41.2382C72.4092 40.9417 72.4092 40.5464 72.7092 40.3487C74.3318 39.1357 77.9604 36.389 81.9878 33.3353C75.9487 28.1402 68.0911 25 59.5 25C50.9436 25 43.1145 28.1149 37.0852 33.2726C41.0935 36.3119 44.7 39.0416 46.3162 40.2498C46.5161 40.5464 46.6162 40.8429 46.3162 41.1394C39.1182 49.8371 45.1165 52.9999 48.1157 53.1976C48.4158 53.1976 48.4158 53.4941 48.4158 53.4941V57.7441L47.0161 59.3255C47.0161 59.3255 46.5161 60.0174 46.4163 59.3255C46.3162 58.7325 45.6165 57.7441 44.0168 58.4359C42.8171 58.9301 40.1179 57.8429 39.0183 57.3487C38.7183 57.1511 38.7183 57.0522 39.0183 56.8546C40.2178 56.2615 43.417 54.5813 43.6169 54.4825C43.8169 54.3836 43.5171 53.9883 43.217 54.0871C42.8171 54.2848 41.5176 54.8778 39.418 55.6685C37.3186 56.4592 35.1191 54.9766 34.2195 54.2848C33.9197 54.0871 33.9197 53.8894 34.2195 53.7906C35.8191 53.3952 40.9177 52.1104 41.2175 52.0115C41.5176 51.9127 41.3176 51.4185 40.9177 51.5173C40.459 51.6307 39.4409 51.8417 38.2222 52.0943C37.3164 52.282 36.2996 52.4927 35.3191 52.7034C33.1199 53.1976 31.1204 51.5173 30.3206 50.7266C30.1206 50.4301 30.1206 50.2324 30.4204 50.2324C31.1287 50.1546 32.5649 49.9849 34.0647 49.8077C36.3752 49.5348 38.8364 49.244 39.0183 49.244C39.3181 49.1452 39.3181 48.651 38.9182 48.651C38.2212 48.704 36.1724 48.7855 34.1755 48.8649C32.4495 48.9335 30.7622 49.0005 30.0205 49.0464C29.1318 49.105 28.1375 48.0524 27.3501 46.9589C26.8164 48.3262 26.3674 49.7359 26.0095 51.1815C27.0239 51.0624 28.4211 50.9243 28.4211 50.9243C28.4211 50.9243 29.1208 50.8255 29.6206 51.2208L29.6228 51.2232C30.2219 51.8151 30.7212 52.3088 31.2202 52.9011C31.7202 53.4941 31.1204 53.6917 30.9204 53.6917C30.6204 53.7906 30.4204 53.7906 30.1206 53.8894C28.3447 54.2884 26.7646 53.3989 25.6956 52.5732C25.2395 54.811 25 57.1275 25 59.5C25 78.5538 40.4463 94 59.5 94C78.5537 94 94 78.5538 94 59.5C94 57.1616 93.7673 54.8776 93.324 52.6697C92.2329 53.496 90.6016 54.3876 88.9048 53.9883C88.7549 53.9388 88.6299 53.9141 88.5049 53.8894C88.3799 53.8647 88.2549 53.84 88.105 53.7906C88.0862 53.7812 88.0637 53.771 88.0391 53.7598C87.8015 53.6517 87.3523 53.4474 87.8052 52.9999C88.0552 52.7032 88.3303 52.4312 88.6055 52.1593C88.8801 51.8876 89.155 51.616 89.4048 51.3196C89.9045 50.8255 90.6045 51.0231 90.6045 51.0231C90.6045 51.0231 92.0005 51.1612 93.0146 51.2803C92.6658 49.8531 92.2283 48.4608 91.708 47.1094C90.8909 48.2531 89.8713 49.4041 89.0049 49.3429C87.4053 49.244 81.4067 48.9475 80.1072 48.9475C79.7073 48.9475 79.7073 49.5406 80.0073 49.5406C80.1892 49.5406 82.6509 49.8314 84.9617 50.1044C86.4609 50.2815 87.8967 50.4512 88.605 50.529C88.9048 50.6278 89.0049 50.7266 88.7048 51.0231C87.905 51.8138 85.9058 53.4941 83.7063 52.9999C83.019 52.8522 82.3049 52.6956 81.6228 52.5461C80.0227 52.1954 78.5984 51.8831 78.1077 51.8138C77.7078 51.715 77.6079 52.2092 77.8079 52.308C78.0078 52.4069 83.2063 53.6917 84.8059 54.0871C85.106 54.1859 85.106 54.3836 84.8059 54.5813C83.9062 55.2732 81.7068 56.7557 79.6074 55.965C78.123 55.406 77.0884 54.9458 76.4331 54.6542C76.1614 54.5334 75.9548 54.4415 75.8083 54.3836C75.5085 54.1859 75.2085 54.5813 75.4084 54.779C75.574 54.8336 76.5933 55.3703 77.6748 55.94C78.552 56.4019 79.4702 56.8855 80.0073 57.1511C80.3071 57.3487 80.3071 57.5464 80.0073 57.6453C78.9075 58.1394 76.2083 59.2267 75.0085 58.7325C73.4089 58.0406 72.7092 58.9301 72.6091 59.622C72.5093 60.3139 72.0093 59.622 72.0093 59.622ZM90.8699 45.1212C90.6292 44.597 90.376 44.0799 90.1101 43.5703C89.488 43.7202 88.7915 43.8884 88.062 44.0646C84.8247 44.8465 80.9373 45.7854 80.0073 45.9824C79.6074 46.0813 79.8074 46.5754 80.1072 46.5754C80.2034 46.5754 82.5466 46.2549 85.2188 45.8892C87.1775 45.6212 89.3127 45.329 90.8699 45.1212ZM88.4446 40.7186C88.2566 40.4294 88.0642 40.1433 87.8679 39.8603C86.082 40.6529 84.2664 41.4663 82.803 42.1219C81.4043 42.7485 80.3276 43.2308 79.9072 43.4127C79.5073 43.6103 79.8074 44.1045 80.1072 44.0057C80.165 43.9485 84.3684 42.3049 88.4446 40.7186ZM85.6758 37.0251C85.4829 36.8006 85.2869 36.5786 85.0884 36.3592C83.353 37.4311 81.7695 38.4087 80.6455 39.1025L79.1074 40.0522C78.7075 40.3487 79.1074 40.744 79.3074 40.6452C79.344 40.627 79.8494 40.339 80.6704 39.8709C81.8433 39.2022 83.6602 38.1661 85.6758 37.0251ZM28.2634 44.8344C30.0469 45.0706 32.521 45.4109 34.6367 45.7019C36.9482 46.0198 38.8318 46.2789 38.9182 46.2789C39.218 46.2789 39.418 45.7848 39.0183 45.6859C38.0879 45.4888 34.1982 44.5494 30.9604 43.7674C30.2771 43.6024 29.6228 43.4443 29.0315 43.3018C28.7632 43.8053 28.5071 44.3163 28.2634 44.8344ZM30.7092 40.4842C34.7173 42.0511 38.8042 43.6527 38.9182 43.7092C39.1182 43.808 39.5181 43.3138 39.1182 43.1161C38.6365 42.9078 37.2937 42.3142 35.592 41.5619C34.2886 40.9855 32.7742 40.3161 31.2751 39.6554C31.0825 39.9287 30.894 40.2051 30.7092 40.4842ZM33.3577 36.9864C36.7805 38.937 39.6289 40.5464 39.718 40.5464C39.8179 40.6452 40.3179 40.2498 39.918 39.9533C39.6055 39.7603 38.8508 39.2958 37.8213 38.6623C36.7666 38.0132 35.4233 37.1866 33.9719 36.2926C33.7642 36.5211 33.5593 36.7524 33.3577 36.9864ZM78.0078 59.5232C78.8076 59.029 79.5073 58.6336 80.2073 58.1394C80.3127 58.0873 80.4182 58.0627 80.5088 58.0655C80.5901 58.068 80.6597 58.0927 80.707 58.1394C80.8069 58.2383 81.5068 58.6336 81.6067 58.6336C81.7068 58.6336 82.0066 58.8313 81.6067 59.029C80.8071 59.4243 78.8076 60.215 77.9077 59.8197C77.8079 59.7208 77.8079 59.622 78.0078 59.5232ZM83.8062 56.3604C84.3062 55.965 85.106 55.1743 85.4058 54.9766C85.6057 54.6801 86.2056 54.6801 86.2056 54.6801C86.2056 54.6801 87.905 55.1743 88.2051 55.2732C88.5049 55.372 88.605 55.5697 88.3049 55.7673C87.5051 56.4592 85.6057 57.5464 83.9062 56.8546C83.7063 56.8546 83.6062 56.558 83.8062 56.3604ZM37.3186 58.6336C37.4187 58.5348 38.1184 58.2383 38.2185 58.1394C38.4185 58.0406 38.6184 58.0406 38.8184 58.1394C39.5181 58.6336 40.2178 59.1278 40.9177 59.5232C41.0352 59.5812 41.0835 59.6392 41.0833 59.6973C41.0833 59.7381 41.0588 59.7789 41.0176 59.8197C40.1179 60.215 38.2185 59.4243 37.3186 59.029C37.0188 58.8313 37.2188 58.6336 37.3186 58.6336ZM30.9204 55.372C31.2202 55.2732 32.9199 54.779 32.9199 54.779C32.9199 54.779 33.4197 54.6801 33.7197 55.0755C33.8025 55.1572 33.9875 55.3234 34.2188 55.5251C34.5466 55.8114 34.9673 56.1693 35.3191 56.4592C35.519 56.6569 35.4192 56.8546 35.2192 56.9534C33.5198 57.5464 31.6201 56.4592 30.8203 55.8662C30.6204 55.6685 30.6204 55.4708 30.9204 55.372ZM59.6128 45.0929H63.0117C63.0117 45.0929 64.3115 45.0929 64.0115 43.6103C63.7117 42.4243 61.812 32.4417 61.812 32.4417C61.6121 33.2324 61.2122 33.8254 60.8123 33.8254H60.6123H59.5127H58.2131C58.2131 33.8254 57.4133 33.8254 56.9133 34.6161H54.814C52.9146 34.6161 51.4148 36.0987 51.4148 37.9766C51.4148 37.9766 53.1145 36.8894 54.814 36.8894H56.4136C56.4136 36.9882 56.3887 37.087 56.3635 37.1859C56.3384 37.2847 56.3135 37.3835 56.3135 37.4824H55.1138C53.4143 37.4824 52.4146 38.1743 52.4146 38.1743C52.9199 38.0633 53.3306 38.1393 53.8062 38.2273C54.1772 38.2959 54.5879 38.3719 55.1138 38.3719H56.2136C55.8137 40.4475 55.3137 42.9185 55.2139 43.7092C54.9138 45.0929 56.2136 45.0929 56.2136 45.0929H59.6128ZM58.5129 34.6161H60.2124C59.8127 35.308 58.9128 36.494 58.5129 36.3952C58.0132 36.3952 57.6133 35.9998 57.6133 35.5056C57.6133 35.0114 58.0132 34.6161 58.5129 34.6161ZM75.8083 81.0698C75.9082 80.9709 80.2073 79.5872 80.2073 79.5872C80.2073 79.5872 76.0083 78.2035 75.9082 78.2035C75.8083 78.2035 75.8083 78.3023 75.8083 78.3023L76.1082 79.686H71.0095C71.2095 79.2907 71.3096 78.9942 71.3096 78.9942L71.5095 78.5988C71.6094 78.4011 71.6094 78.2035 71.4094 78.1046C71.1096 78.0058 69.51 77.2151 69.51 77.2151L67.2107 71.2848C66.6707 71.6133 66.355 71.8054 66.0342 71.9885C65.583 72.2462 65.1218 72.4862 64.0115 73.0639L66.4109 78.0058C66.4109 78.0058 66.3582 78.0841 66.2932 78.2006C66.2317 78.3106 66.1594 78.4547 66.1108 78.5988C66.011 78.9942 66.2109 78.9942 66.3108 78.9942H67.4106H69.8101C70.01 78.9942 70.1099 78.9942 70.01 79.1918C69.9099 79.2907 69.8101 79.5872 69.8101 79.5872H63.9116L64.1001 80.1802H60.0125V79.5872H55.1138H49.3154L49.1155 79.1918C49.1155 79.093 49.1155 78.9942 49.3154 78.9942H51.7148H52.8145C52.9146 78.9942 53.1145 78.8953 53.0144 78.5988C52.8145 78.3023 52.7146 78.0058 52.7146 78.0058L55.1138 73.0639C53.2144 72.0755 53.2144 72.0755 51.9148 71.2848L49.6152 77.2151C49.6152 77.2151 49.0388 77.4832 48.5178 77.7267C48.1443 77.9014 47.7993 78.0633 47.7158 78.1046C47.5159 78.2035 47.5159 78.4011 47.616 78.5988L47.8159 78.9942C47.8159 78.9942 47.8552 79.1112 47.9343 79.2963C47.981 79.4058 48.0415 79.5391 48.1157 79.686H43.3171L43.0171 78.2035H38.9182L39.218 79.686L38.9182 81.1686H43.0171L43.217 80.2791H48.4158C48.6157 80.7733 48.8157 81.3663 48.9155 81.4651C49.1155 81.6628 49.3154 81.6628 49.4155 81.6628C49.5154 81.6628 51.5149 81.2675 51.7148 81.1686C51.9148 81.1686 52.0146 80.9709 52.0146 80.8721C52.0747 80.8128 52.1345 80.6469 52.1946 80.4809C52.2346 80.3701 52.2747 80.2593 52.3147 80.1802H54.9253L54.0142 83.0465C54.0142 83.0465 57.5132 86.2093 59.0129 87V80.1802H60.0125V86.9012C61.5122 86.1105 65.0112 83.0465 65.0112 83.0465L64.1001 80.1802H66.6108C66.6653 80.2878 66.7493 80.454 66.8145 80.5991C66.8691 80.7205 66.9106 80.827 66.9106 80.8721C66.9106 80.9709 67.0107 81.0698 67.2107 81.1686C67.4106 81.2675 69.4102 81.6628 69.51 81.6628C69.6101 81.7616 69.9099 81.7616 70.01 81.4651C70.01 81.3663 70.3098 80.8721 70.5098 80.2791H75.8083L75.7083 80.9709C75.7083 80.9709 75.7083 81.0698 75.8083 81.0698ZM59.0129 80.1802H54.9253L55.1138 79.5872L59.0129 79.686V80.1802ZM39.3181 79.5872H43.1172L42.8171 80.9709H39.0183L39.3181 79.5872ZM79.8074 79.5872L75.9082 80.8721L76.2083 79.5872H79.8074ZM56.5134 52.9999H62.6118L62.7119 72.372C61.3123 73.0639 60.2124 73.5581 59.6128 73.5581C59.0129 73.6569 57.8132 73.1628 56.5134 72.4709V52.9999ZM63.6116 52.9999H68.8103C69.3101 52.9999 69.71 53.3952 69.71 53.8894V68.5174C69.71 68.5174 66.5107 70.4941 63.6116 71.9767V52.9999ZM69.71 51.122V46.7731C69.71 46.2789 69.3101 45.8836 68.9102 45.8836H50.2151C49.7153 45.8836 49.3154 46.2789 49.3154 46.7731V51.122C49.3154 51.6161 49.7153 52.0115 50.2151 52.0115H68.8103C69.3101 52.0115 69.71 51.6161 69.71 51.122ZM54.5142 48.4534L53.2144 49.3429L53.7144 50.8255L52.4146 49.9359L51.115 50.8255L51.6147 49.3429L50.3152 48.4534H51.9148L52.4146 46.9708L52.9146 48.4534H54.5142ZM61.6121 48.4534L60.3125 49.3429L60.8123 50.8255L59.5127 49.9359L58.2131 50.8255L58.7129 49.3429L57.4133 48.4534H59.0129L59.5127 46.9708L60.0125 48.4534H61.6121ZM68.7102 48.4534L67.4106 49.3429L67.9104 50.8255L66.6108 49.9359L65.311 50.8255L65.811 49.3429L64.5115 48.4534H66.1108L66.6108 46.9708L67.1106 48.4534H68.7102ZM59.0129 74.7441V78.8953H55.3137L56.9133 73.9534C57.8132 74.3488 58.5129 74.6453 59.0129 74.7441ZM62.1121 73.8546L63.7117 78.8953H60.1125V74.7441C60.6123 74.5465 61.3123 74.25 62.1121 73.8546Z" fill="#0B558E"/>
<path fill-rule="evenodd" clip-rule="evenodd" d="M27.3462 46.969C27.5477 46.4525 27.7612 45.9421 27.9864 45.4381C27.549 45.3806 27.1791 45.3335 26.9 45.3C26.6 45.3 26.4 45.4 26.6 45.7C26.7668 46.0057 27.0263 46.4659 27.3462 46.969ZM28.7676 43.8068C29.2869 42.7919 29.855 41.8061 30.4688 40.8524C27.7104 39.7621 25.1061 38.7345 24 38.3C23.6 38.2 23.5 38.3 23.6 38.7C24.1 40 25.4 43 27.5 43.5C27.8329 43.5799 28.2651 43.6846 28.7676 43.8068ZM31.0472 39.9831C31.7072 39.0227 32.4145 38.0975 33.1659 37.2107C30.8865 35.8957 28.4224 34.4689 26.3829 33.2879L26.3822 33.2874C24.7402 32.3367 23.3735 31.5453 22.6 31.1C22.2 30.9 22 31 22 31.4C22.2 33 23 36.5 24.7 37.2C25.65 37.5886 28.2596 38.7418 31.0472 39.9831ZM33.7962 36.4872C34.7842 35.3844 35.8421 34.3456 36.963 33.3777C34.7877 31.7091 32.519 29.9677 30.4038 28.3442L30.4012 28.3421L30.4007 28.3418L30.3988 28.3403C26.6707 25.4788 23.4203 22.9839 22 21.9C21.5 21.5 21.2 21.6 21.2 22.1C21.2 24 21.4 28.7 23.3 29.9C24.622 30.7621 29.5448 33.8376 33.7962 36.4872ZM82.563 33.8413C83.642 34.8117 84.6594 35.8493 85.6087 36.9473C90.0089 34.1985 95.3732 30.8443 96.7 30C98.6 28.8 98.8 24.1 98.8 22.2C98.8 21.7 98.5 21.6 98 22C96.5829 23.0815 93.3438 25.5677 89.6261 28.4213L89.6007 28.4408L89.5999 28.4414C87.3295 30.1841 84.8821 32.0626 82.563 33.8413ZM86.1834 37.6296C86.9436 38.5559 87.6565 39.5226 88.3183 40.5258C91.3365 39.1707 94.2782 37.8715 95.3 37.5C97 36.8 97.8 33.2 98 31.7C98.1 31.3 97.9 31.1 97.4 31.4C95.5736 32.2855 90.4389 35.1928 86.1834 37.6296ZM88.8759 41.3992C89.4535 42.3345 89.9876 43.2994 90.4754 44.2912C91.3039 44.0892 92.0097 43.9177 92.5 43.8C94.6 43.3 95.9 40.3 96.4 39C96.5 38.6 96.4 38.4 96 38.6L94.8347 39.0575C93.3661 39.634 91.1371 40.5091 88.8759 41.3992ZM91.1951 45.8516C91.5057 46.5718 91.7924 47.3047 92.0543 48.0492C92.506 47.4292 92.9055 46.7898 93.1973 46.3227C93.2723 46.2026 93.3402 46.094 93.4 46C93.5 45.7 93.4 45.6 93.1 45.6C92.6715 45.6535 92.0039 45.7422 91.1951 45.8516ZM25.807 52.0474C25.7437 52.3349 25.684 52.6237 25.6279 52.9139C25.5838 52.875 25.5412 52.837 25.5 52.8C25.1 52.4 25.1 52.2 25.5 52.1C25.5562 52.0859 25.6637 52.0679 25.807 52.0474ZM26.7591 48.5945C26.6483 48.9274 26.5424 49.2626 26.4415 49.6L22.8001 49.6L22.7743 49.6013C21.1808 49.6646 19.3963 46.3919 18.7 44.9C18.55 44.6 18.6813 44.4125 18.925 44.3797C18.9741 44.3731 19.0277 44.3727 19.0845 44.379C19.1218 44.3831 19.1605 44.39 19.2001 44.4C19.2064 44.4 19.2136 44.4002 19.2219 44.4006C19.2384 44.4015 19.2589 44.4032 19.2831 44.4057C20.0277 44.4818 24.3001 45.3 24.3001 45.3C24.3001 45.3 25.1001 45.5 25.7001 46.5C25.7986 46.6969 25.8971 46.9 25.9971 47.1061L25.9971 47.1061C26.2358 47.5982 26.483 48.1079 26.7591 48.5945ZM93.5132 53.692C93.4181 53.1308 93.3094 52.5741 93.1875 52.0225C93.7983 52.0923 94.3448 52.1612 94.5 52.2C94.9 52.3 94.9 52.5 94.5 52.9C94.2355 53.138 93.901 53.4181 93.5132 53.692ZM100.6 27.8C99.9 28.2 99.4 27.8 99.4 27.4C99.5 27.1 99.5 26.7 99.5 26.4L99.8 22.6C99.9 21.2 100.9 20.5 100.9 20.5L105.4 16.8C105.682 16.5182 105.964 16.3 106.209 16.1095L106.209 16.1095L106.21 16.1094L106.21 16.1094C106.4 15.9618 106.569 15.8309 106.7 15.7C107.2 15.2 107.5 15.4 107.5 15.9C107.5 17.9 107.5 23.1 105.4 24.5C104.6 25.1 102.9 26.3 100.6 27.8ZM94.0031 47.2061L94.0034 47.2054L94.004 47.2042C94.1037 46.9988 94.2019 46.7963 94.3 46.6C94.9 45.5 95.7 45.4 95.7 45.4C95.7 45.4 100.4 44.6 100.8 44.5C101.3 44.4 101.5 44.6 101.3 45C100.6 46.4 98.8 49.7 97.2 49.7H93.3C93.1 49.7 92.8 49.5 93 49.1C93.3769 48.497 93.697 47.8372 94.003 47.2062L94.0031 47.2061L94.0031 47.2061ZM98.5001 34.1774L98.5002 34.1765C98.6335 33.3547 98.7668 32.5329 98.9 31.8C99.0901 30.9447 99.3704 30.7216 99.8269 30.3583L99.9 30.3C100.28 30.1098 102.55 28.7138 104.211 27.6919L104.211 27.6919L104.213 27.6909C105.171 27.1014 105.927 26.6366 106 26.6C106.3 26.4 106.7 26.5 106.6 26.9C106.4 28.6 105.7 32.6 103.8 33.5C103.397 33.7013 102.897 33.9351 102.3 34.2143L102.3 34.2144L102.3 34.2144L102.299 34.2148C101.413 34.6289 100.314 35.1431 99 35.8C98.7 35.9 98.2 35.9 98.3 35.4C98.3667 34.9999 98.4334 34.5887 98.5001 34.1776L98.5001 34.1774ZM97.1091 39.818C97.1734 39.6421 97.2367 39.4688 97.3 39.3C97.4 39 97.6 38.5 98.4 38.3C99.2 38 103.8 36.4 104.4 36.2C104.9 36 105.1 36.2 104.9 36.8C104.3 38.3 102.8 41.2 100.6 41.7C99.8 41.9 98.4 42.2 96.8 42.5C96.5 42.5 96 42.4 96.3 41.8C96.6156 41.1688 96.8689 40.4755 97.1091 39.8181L97.1091 39.818ZM19.1 20.4C19.1 20.4 20.2 21.1 20.2 22.5L20.5 26.3C20.5 26.45 20.525 26.625 20.55 26.8C20.575 26.975 20.6 27.15 20.6 27.3C20.6 27.7 20.1 28.1 19.4 27.7C17.8785 26.749 16.6786 25.8785 15.8001 25.2412L15.8001 25.2411L15.8 25.2411C15.2929 24.8732 14.8929 24.583 14.6 24.4C12.5 23 12.4 17.9 12.5 15.8C12.5 15.3 12.8 15.2 13.3 15.6C13.6 15.9 14.1 16.3 14.6 16.7L19.1 20.4ZM15.7889 27.6919L15.7889 27.6919C17.4503 28.7138 19.7197 30.1098 20.1 30.3L20.1732 30.3583C20.6296 30.7216 20.91 30.9447 21.1 31.8C21.2 33 21.4 34.2 21.7 35.4C21.8 35.9 21.3 35.9 21 35.8C18.8 34.7 17.2 33.9 16.2 33.5C14.3 32.6 13.6 28.6 13.4 26.9C13.4 26.5 13.8 26.5 14 26.6C14.0732 26.6366 14.8297 27.1019 15.7889 27.6919ZM15.6 36.1C16.2 36.3 20.8 37.9 21.6 38.2C22.3508 38.4815 22.5731 38.9391 22.6803 39.1597L22.6917 39.183L22.7 39.2C22.7633 39.3686 22.8265 39.5417 22.8907 39.7173L22.8909 39.7179L22.891 39.7181C23.1312 40.3755 23.3845 41.0689 23.7 41.7C24 42.4 23.5 42.5 23.2 42.4C21.6 42.1 20.2 41.8 19.4 41.6C17.2 41.1 15.7 38.2 15.1 36.7C14.8 36.2 15 35.9 15.6 36.1Z" fill="#0B558E"/>
<path d="M16 75L17.1226 78.4549H20.7553L17.8164 80.5902L18.9389 84.0451L16 81.9098L13.0611 84.0451L14.1836 80.5902L11.2447 78.4549H14.8774L16 75Z" fill="#0B558E"/>
<path d="M12 61L13.1226 64.4549H16.7553L13.8164 66.5902L14.9389 70.0451L12 67.9098L9.06107 70.0451L10.1836 66.5902L7.24472 64.4549H10.8774L12 61Z" fill="#0B558E"/>
<path d="M12 46L13.1226 49.4549H16.7553L13.8164 51.5902L14.9389 55.0451L12 52.9098L9.06107 55.0451L10.1836 51.5902L7.24472 49.4549H10.8774L12 46Z" fill="#0B558E"/>
<path d="M103 75L101.877 78.4549H98.2447L101.184 80.5902L100.061 84.0451L103 81.9098L105.939 84.0451L104.816 80.5902L107.755 78.4549H104.123L103 75Z" fill="#0B558E"/>
<path d="M107 61L105.877 64.4549H102.245L105.184 66.5902L104.061 70.0451L107 67.9098L109.939 70.0451L108.816 66.5902L111.755 64.4549H108.123L107 61Z" fill="#0B558E"/>
<path d="M107 46L105.877 49.4549H102.245L105.184 51.5902L104.061 55.0451L107 52.9098L109.939 55.0451L108.816 51.5902L111.755 49.4549H108.123L107 46Z" fill="#0B558E"/>
<path fill-rule="evenodd" clip-rule="evenodd" d="M60 116C90.9279 116 116 90.9279 116 60C116 49.1363 112.907 38.9951 107.552 30.4093C108.187 29.2728 108.561 27.1411 108.769 25.0416C115.838 34.8852 120 46.9566 120 60C120 93.1371 93.1371 120 60 120C26.8629 120 0 93.1371 0 60C0 46.7077 4.32242 34.4249 11.6384 24.4806C11.7897 26.493 12.084 28.703 12.6097 30.1507C7.15597 38.7913 4 49.0271 4 60C4 90.9279 29.0721 116 60 116ZM101.98 17.1321L98.9124 19.728C88.8371 9.99082 75.1182 4 60 4C44.8606 4 31.1244 10.0077 21.0452 19.769L17.9776 17.1734C28.8021 6.55094 43.636 0 60 0C76.3428 0 91.1595 6.53396 101.98 17.1321Z" fill="#C4C6C8"/>
<path fill-rule="evenodd" clip-rule="evenodd" d="M59.5 98C80.763 98 98 80.763 98 59.5C98 56.5781 97.6745 53.7322 97.0578 50.9966H97.0728C97.6794 51.0374 98.3062 50.7091 98.9182 50.1621C99.6257 53.1598 100 56.2862 100 59.5C100 81.8675 81.8675 100 59.5 100C37.1325 100 19 81.8675 19 59.5C19 55.9872 19.4472 52.5788 20.2879 49.3287C20.8383 49.9884 21.4147 50.5162 21.9891 50.7915C21.342 53.5898 21 56.505 21 59.5C21 80.763 38.237 98 59.5 98ZM86.4335 29.2532C79.2763 22.8755 69.8407 19 59.5 19C49.4445 19 40.2449 22.6646 33.1639 28.7312L34.7551 30.0041C41.4466 24.3845 50.0781 21 59.5 21C69.2076 21 78.0761 24.5929 84.8482 30.5214L86.4335 29.2532Z" fill="#C81330"/>
<path d="M42.8965 68.5804C42.8236 68.6469 42.682 68.7541 42.5727 68.7412C42.5426 68.7369 42.5169 68.7219 42.489 68.7048C42.4247 67.8794 42.1372 67.1184 41.6869 66.4795C41.7019 66.4688 41.7169 66.4624 41.7297 66.4516C41.9614 66.2716 42.2424 65.9221 42.266 65.2854C42.2703 65.2061 42.2767 64.9939 42.5727 64.9767C42.873 64.966 43.1089 64.7173 43.1046 64.4172C43.0982 64.1171 42.8537 63.8791 42.5555 63.8791H42.5448C42.0129 63.8898 41.2064 64.2607 41.1678 65.2447C41.1635 65.3412 41.1442 65.5148 41.052 65.5877C41.0112 65.6199 40.9576 65.6285 40.9061 65.6306C40.3184 65.1354 39.602 64.7903 38.8149 64.6487C38.8213 64.6209 38.832 64.593 38.8342 64.563C38.8706 64.2714 38.8213 63.8255 38.3881 63.3603C38.3344 63.3024 38.1907 63.1459 38.3859 62.923C38.5897 62.7043 38.5811 62.3613 38.3666 62.1534C38.1478 61.9433 37.8025 61.9497 37.5901 62.1684C37.2212 62.5521 36.9145 63.3839 37.5816 64.1063C37.6481 64.1771 37.7553 64.3143 37.7424 64.4301C37.7339 64.4944 37.6888 64.5523 37.6416 64.593C36.8523 64.6573 36.1188 64.9253 35.4989 65.3497C35.4818 65.324 35.471 65.2961 35.4517 65.2726C35.2716 65.041 34.922 64.7602 34.2871 64.7366C34.2077 64.7345 33.9954 64.7259 33.9782 64.4301C33.9675 64.1321 33.7187 63.9027 33.4184 63.9005C33.1139 63.907 32.8736 64.1557 32.8801 64.4601C32.8908 64.9917 33.2618 65.7978 34.2464 65.8364C34.3429 65.8407 34.5166 65.8599 34.5895 65.9521C34.6281 66.0014 34.6367 66.0679 34.6324 66.1279C34.1327 66.7025 33.7745 67.4035 33.62 68.1795C33.6007 68.1752 33.5836 68.1688 33.5643 68.1667C33.2704 68.1302 32.8264 68.1795 32.361 68.6126C32.3031 68.6662 32.1487 68.812 31.9234 68.6147C31.7047 68.4111 31.3615 68.4196 31.1535 68.634C30.9433 68.8527 30.9497 69.2 31.1685 69.4101C31.3872 69.6202 31.754 69.811 32.1615 69.811C32.4683 69.811 32.7964 69.7038 33.1075 69.4165C33.1804 69.3501 33.3219 69.2386 33.4313 69.2557C33.4721 69.26 33.5107 69.2815 33.5429 69.305C33.5879 70.1283 33.8496 70.8936 34.2807 71.5389C34.2764 71.541 34.2743 71.5432 34.27 71.5453C34.0383 71.7254 33.7574 72.0748 33.7338 72.7115C33.7295 72.7908 33.7231 73.0031 33.4271 73.0202C33.1268 73.0309 32.8909 73.2796 32.8951 73.5797C32.9016 73.8799 33.1461 74.1178 33.4442 74.1178H33.4549C33.989 74.1071 34.7933 73.7362 34.8319 72.7522C34.8362 72.6558 34.8555 72.4821 34.9478 72.4092C34.9671 72.3942 34.9907 72.3899 35.0143 72.3835C35.6084 72.9216 36.3441 73.3032 37.1613 73.4618C37.1313 73.7533 37.1892 74.1842 37.6074 74.6387C37.661 74.6966 37.8048 74.8531 37.6096 75.0761C37.4058 75.2947 37.4144 75.6377 37.6289 75.8456C37.734 75.9485 37.8712 76 38.0085 76C38.1522 76 38.2959 75.9443 38.4053 75.8328C38.7742 75.449 39.081 74.6173 38.4117 73.8948C38.3453 73.8241 38.238 73.6869 38.2509 73.5711C38.253 73.5583 38.2616 73.5475 38.2659 73.5347C39.1153 73.4875 39.9024 73.2067 40.5609 72.75C40.7454 72.9773 41.0907 73.2431 41.7084 73.2667C41.7877 73.2688 42.0001 73.2774 42.0172 73.5733C42.028 73.8691 42.2703 74.1028 42.5663 74.1028H42.5771C42.8816 74.0963 43.1219 73.8477 43.1154 73.5433C43.1047 73.0116 42.7336 72.2055 41.7491 72.167C41.6526 72.1627 41.4789 72.1434 41.4059 72.0512C41.3952 72.0383 41.3952 72.0212 41.3888 72.0062C41.9164 71.4016 42.2832 70.6577 42.429 69.8367C42.4312 69.8367 42.4312 69.8367 42.4333 69.8388C42.4827 69.8452 42.5341 69.8474 42.5899 69.8474C42.873 69.8474 43.2484 69.7552 43.6388 69.3929C43.6967 69.3393 43.8511 69.1935 44.0763 69.3908C44.2951 69.5966 44.6382 69.588 44.8463 69.3715C45.0565 69.1528 45.0501 68.8055 44.8334 68.5954C44.4516 68.2181 43.6193 67.9116 42.8965 68.5804ZM38.3151 72.4264C38.2186 72.435 38.1199 72.4414 38.0212 72.4414C37.9612 72.4414 37.9011 72.435 37.8432 72.4328C37.0496 72.3921 36.3289 72.0769 35.7734 71.5817C35.6898 71.5067 35.6083 71.4274 35.5311 71.3438C34.9755 70.7413 34.6345 69.9396 34.6345 69.0563C34.6345 67.1891 36.1552 65.6691 38.0234 65.6691C39.7994 65.6691 41.2578 67.0433 41.3973 68.7819C41.4037 68.872 41.4101 68.962 41.4101 69.0542V69.0692C41.4058 69.8796 41.1184 70.6234 40.638 71.2044C40.5415 71.3202 40.4364 71.4273 40.327 71.5302C39.7865 72.0319 39.0873 72.3599 38.3151 72.4264Z" fill="white"/>
<path d="M86.9498 66.2495C86.8459 66.0633 86.6165 66.0005 86.4362 66.1078L85.1738 66.8609L85.5012 65.9559C85.5737 65.7555 85.4757 65.5308 85.2816 65.4559C85.0856 65.381 84.87 65.4842 84.7974 65.6846L84.1505 67.4724L83.4938 67.8651L83.3703 66.1584L81.8785 66.9014V66.1179L83.0547 64.644C83.1861 64.4779 83.1645 64.233 83.0038 64.0973C82.843 63.9596 82.6058 63.9839 82.4725 64.1499L81.8766 64.895V63.3887C81.8766 63.1741 81.708 63 81.5002 63C81.2924 63 81.1239 63.1741 81.1239 63.3887V64.895L80.5279 64.1499C80.3946 63.9839 80.1574 63.9617 79.9967 64.0973C79.836 64.233 79.8144 64.4779 79.9457 64.644L81.1219 66.1179V66.9014L79.6301 66.1584L79.5066 67.8651L78.8499 67.4724L78.203 65.6846C78.1305 65.4842 77.9168 65.383 77.7188 65.4559C77.5248 65.5308 77.4248 65.7555 77.4993 65.9559L77.8267 66.8609L76.5643 66.1078C76.3839 66.0005 76.1546 66.0633 76.0507 66.2495C75.9468 66.4358 76.0076 66.6727 76.1879 66.78L77.4503 67.5331L76.527 67.693C76.3232 67.7275 76.184 67.9279 76.2193 68.1405C76.2506 68.3308 76.4094 68.4644 76.5898 68.4644C76.6094 68.4644 76.6309 68.4624 76.6525 68.4583L78.4755 68.1425L79.1322 68.5353L77.762 69.499L79.1322 70.4627L78.4755 70.8555L76.6525 70.5396C76.4447 70.5032 76.2526 70.6469 76.2193 70.8595C76.184 71.0721 76.3232 71.2726 76.527 71.307L77.4503 71.4669L76.1879 72.22C76.0076 72.3273 75.9468 72.5642 76.0507 72.7505C76.1212 72.876 76.2467 72.9448 76.3761 72.9448C76.4408 72.9448 76.5055 72.9286 76.5643 72.8922L77.8267 72.1391L77.4993 73.0441C77.4268 73.2445 77.5248 73.4692 77.7189 73.5441C77.762 73.5603 77.8071 73.5684 77.8502 73.5684C78.0031 73.5684 78.1462 73.4712 78.2031 73.3154L78.85 71.5276L79.5067 71.1349L79.6302 72.8416L81.1219 72.0986V72.8821L79.9458 74.356C79.8144 74.5221 79.836 74.767 79.9967 74.9027C80.1575 75.0404 80.3947 75.0161 80.528 74.8501L81.1239 74.105V75.6113C81.1239 75.8259 81.2925 76 81.5003 76C81.708 76 81.8766 75.8259 81.8766 75.6113V74.105L82.4726 74.8501C82.547 74.9432 82.6549 74.9918 82.7627 74.9918C82.847 74.9918 82.9332 74.9634 83.0018 74.9027C83.1626 74.765 83.1841 74.5221 83.0528 74.356L81.8766 72.8821V72.0986L83.3684 72.8416L83.4919 71.1349L84.1486 71.5276L84.7955 73.3154C84.8523 73.4712 84.9954 73.5684 85.1483 73.5684C85.1915 73.5684 85.2365 73.5603 85.2797 73.5441C85.4737 73.4692 85.5737 73.2445 85.4992 73.0441L85.1719 72.1391L86.4343 72.8922C86.4931 72.9266 86.5578 72.9448 86.6225 72.9448C86.7538 72.9448 86.8792 72.876 86.9479 72.7505C87.0518 72.5642 86.991 72.3273 86.8106 72.22L85.5482 71.4669L86.4715 71.307C86.6754 71.2725 86.8145 71.0721 86.7793 70.8595C86.7459 70.6469 86.5519 70.5072 86.346 70.5396L84.523 70.8555L83.8663 70.4627L85.2365 69.499L83.8663 68.5353L84.523 68.1425L86.346 68.4583C86.3676 68.4624 86.3892 68.4644 86.4088 68.4644C86.5891 68.4644 86.7499 68.3288 86.7793 68.1405C86.8145 67.9279 86.6754 67.7274 86.4715 67.693L85.5482 67.5331L86.8106 66.78C86.991 66.6726 87.0537 66.4358 86.9498 66.2495ZM79.0986 69.499L79.8553 68.9665L80.7472 69.499L79.8553 70.0314L79.0986 69.499ZM81.1236 71.2361L80.3003 71.6451L80.2317 70.7037L81.1236 70.1712L81.1236 71.2361ZM81.1236 68.8269L80.2317 68.2944L80.3003 67.353L81.1236 67.7619L81.1236 68.8269ZM81.8764 67.7639L82.6997 67.355L82.7683 68.2964L81.8764 68.8289L81.8764 67.7639ZM82.6997 71.6471L81.8764 71.2382V70.1752L82.7683 70.7077L82.6997 71.6471ZM83.8994 69.499L83.1427 70.0315L82.2508 69.499L83.1427 68.9666L83.8994 69.499Z" fill="white"/>
<path d="M29.1834 16.2044L30.2981 15.424L37.0562 21.4922L37.5538 21.3035L38.0036 21.9457L35.8543 23.4503L35.4045 22.8081L35.876 22.3185L34.6173 21.1259L32.9357 22.3031L33.6336 23.9042L34.0858 23.7312L34.5356 24.3734L32.6778 25.674L32.2207 25.0369L32.5829 24.6238L29.1834 16.2044ZM30.8207 17.4892C31.571 19.0278 31.8575 19.8916 32.5494 21.4569L33.9468 20.4787C32.7001 19.3014 32.0104 18.7242 30.8207 17.4892Z" fill="#0B558E"/>
<path d="M36.1161 13.1469L35.6574 13.1727L35.3137 12.4357L37.1529 11.5781C38.4609 13.6055 39.5797 15.193 40.85 17.2443C40.0432 14.9718 39.4123 13.1604 38.6973 10.8579L40.5415 9.99796L40.8851 10.7349L40.451 11.1255L44.2317 18.0019L44.7701 17.91L45.1027 18.6232L43.2223 19.5001L42.8897 18.7869L43.353 18.4261C42.0842 16.022 41.2162 14.4826 39.9422 12.0812C40.8669 14.8431 41.4824 16.6815 42.3295 19.4678L41.5002 19.8545C39.8749 17.4314 38.7135 15.9804 37.1246 13.5335C38.1742 16.0399 38.7571 17.5738 39.7986 20.0836L40.1085 20.0838L40.4411 20.797L39.1432 21.4022L38.8107 20.689L39.0004 20.4558L36.1161 13.1469Z" fill="#0B558E"/>
<path d="M44.7262 9.53475L43.8902 9.5822L43.6797 8.79657L48.9553 7.38297L49.6544 9.47729L48.9615 9.66294L48.2988 8.49599L46.1302 8.95481L47.0436 12.3634L48.4092 11.9568L48.2892 10.8753L48.9226 10.7055L49.7443 13.772L49.1108 13.9417L48.6605 12.8944L47.2745 13.2251L48.2319 16.7984L50.5865 16.0045L50.726 14.2288L51.5396 14.2959L51.9036 16.6838L46.2123 18.2088L46.0086 17.4485L46.7566 17.1122L44.7262 9.53475Z" fill="#0B558E"/>
<path d="M53.6391 15.5358L54.3561 15.3419L53.675 7.5571L52.9676 7.43534L52.8981 6.64124L54.235 6.52428C54.3518 6.51406 54.4805 6.49843 54.6211 6.47738C54.7618 6.45634 54.8686 6.43825 54.9416 6.42311C55.2582 6.36043 55.5209 6.31995 55.7299 6.30167C56.363 6.24628 56.8781 6.29304 57.2752 6.44195C57.6722 6.59086 57.9731 6.84438 58.1779 7.20251C58.3826 7.56063 58.5116 8.04345 58.5647 8.65096C58.6171 9.24979 58.552 9.81517 58.3694 10.3471C58.1867 10.8791 57.8886 11.2593 57.4751 11.4879C57.7338 11.6139 57.9756 11.8639 58.2003 12.2377C58.425 12.6116 58.6723 13.1016 58.9421 13.7076C59.133 14.1194 59.2767 14.4173 59.3733 14.6012C59.4753 14.776 59.5674 14.8728 59.6496 14.8919L59.9652 14.9954L60.0324 15.7635L58.465 15.9006C58.3667 15.9092 58.25 15.7795 58.1151 15.5115C57.9855 15.2342 57.8081 14.7994 57.5829 14.2069C57.3178 13.513 57.094 12.9729 56.9116 12.5866C56.7291 12.2003 56.5507 11.9667 56.3764 11.8857L55.4267 11.9688L55.7115 15.2233L56.5711 15.2793L56.6395 16.0604L53.7075 16.3169L53.6391 15.5358ZM56.2055 11.1005C56.5559 11.0698 56.8138 10.868 56.9794 10.495C57.145 10.1219 57.1966 9.57958 57.1344 8.86792C57.0789 8.23438 56.9396 7.77433 56.7163 7.48779C56.4992 7.2007 56.154 7.07787 55.6807 7.11927C55.5086 7.13433 55.3622 7.16026 55.2415 7.19705C55.1263 7.22462 55.0502 7.24002 55.0133 7.24325L55.355 11.1487C55.4303 11.1596 55.6093 11.1526 55.892 11.1279L56.2055 11.1005Z" fill="#0B558E"/>
<path d="M64.543 7.43059L62.3732 7.06961L62.4534 6.15356L68.2735 6.66276L68.1933 7.5788L65.9995 7.55802L65.3345 15.1593L67.5009 15.4936L67.4242 16.3705L61.6041 15.8613L61.6819 14.9714L63.8779 15.0319L64.543 7.43059Z" fill="#0B558E"/>
<path d="M72.3857 17.8038C71.2623 17.5028 70.5171 16.8477 70.1501 15.8384C69.7854 14.8207 69.8014 13.5714 70.1983 12.0903C70.4598 11.1142 70.8429 10.3059 71.3474 9.66542C71.8607 9.01831 72.4446 8.57048 73.0991 8.32194C73.7535 8.0734 74.4277 8.04209 75.1215 8.22801C75.4123 8.30592 75.6864 8.40641 75.9438 8.5295C76.2034 8.64417 76.5081 8.78895 76.8579 8.96384C77.1197 9.09712 77.2638 9.16729 77.2902 9.17438L76.4844 11.7454L75.5725 11.501L75.7489 9.61369C75.701 9.50165 75.5957 9.39227 75.4331 9.28556C75.2705 9.17885 75.0504 9.08831 74.7728 9.01394C74.2111 8.86344 73.6694 9.07454 73.1477 9.64725C72.6348 10.2133 72.2103 11.1233 71.8744 12.3771C71.5497 13.5889 71.4467 14.621 71.5653 15.4735C71.6839 16.3261 72.0538 16.8355 72.6749 17.002C72.9723 17.0817 73.2093 17.1091 73.3859 17.0843C73.5714 17.0528 73.7384 16.9848 73.8868 16.8802L74.6713 15.697L75.4769 16.0211L74.7544 17.9244C74.6111 17.9041 74.4633 17.9006 74.311 17.9139C74.1676 17.9205 74.0782 17.9236 74.0429 17.9232C73.7538 17.9449 73.4868 17.9501 73.242 17.9386C73.0016 17.9373 72.7161 17.8924 72.3857 17.8038Z" fill="#0B558E"/>
<path d="M82.5045 10.901L83.7377 11.4761L81.8607 20.3623L82.273 20.6987L81.9416 21.4093L79.5639 20.3005L79.8952 19.5899L80.555 19.7534L80.9586 18.0672L79.0982 17.1997L78.0604 18.6046L78.4363 18.9096L78.105 19.6203L76.0496 18.6618L76.3729 17.9475L76.9118 18.0545L82.5045 10.901ZM82.2102 12.9612C81.2528 14.3802 80.6478 15.0603 79.638 16.4421L81.1839 17.163C81.5803 15.4947 81.7354 14.609 82.2102 12.9612Z" fill="#0B558E"/>
<path d="M88.5412 15.3245L88.0765 14.7912L88.5422 14.126L90.1583 15.2576C89.6218 17.8752 89.12 19.7419 88.3901 22.8843L91.9713 17.7262L91.6005 17.2587L92.0662 16.5935L93.8318 17.8298L93.366 18.495L92.7202 18.2506L87.7019 25.4175L86.8404 24.8144C87.414 22.0149 87.8201 20.3372 88.4984 17.067L84.8388 22.2935L85.2978 22.7748L84.8471 23.4186L82.9605 22.0976L83.4112 21.4538L84.0488 21.7403L88.5412 15.3245Z" fill="#0B558E"/>
<path d="M31.9066 92.6538L32.949 93.5284L28.836 101.626L29.1472 102.058L28.6432 102.658L26.6334 100.972L27.1374 100.371L27.7324 100.7L28.5586 99.1756L26.9862 97.8562L25.6201 98.9446L25.9043 99.3366L25.4003 99.9372L23.663 98.4795L24.1602 97.8731L24.653 98.116L31.9066 92.6538ZM31.0892 94.5676C29.7971 95.6905 29.0367 96.1908 27.7036 97.2641L29.0104 98.3605C29.825 96.8518 30.2041 96.0363 31.0892 94.5676Z" fill="#0B558E"/>
<path d="M34.3802 106.323C33.373 105.741 32.8228 104.916 32.7295 103.846C32.6406 102.768 32.9794 101.566 33.7461 100.238C34.2513 99.3626 34.8305 98.6809 35.4836 98.1929C36.1469 97.7007 36.8269 97.4192 37.5233 97.3485C38.2198 97.2778 38.8791 97.4221 39.5012 97.7812C39.7619 97.9318 40.0006 98.0998 40.2174 98.2853C40.4385 98.4633 40.6954 98.682 40.988 98.9414C41.2063 99.1379 41.3273 99.243 41.351 99.2567L39.9073 101.532L39.0897 101.059L39.7485 99.2821C39.7313 99.1615 39.6579 99.0286 39.5284 98.8834C39.399 98.7382 39.2098 98.5938 38.961 98.4502C38.4574 98.1594 37.8795 98.2231 37.2273 98.6413C36.5853 99.0553 35.9399 99.8244 35.2908 100.949C34.6636 102.035 34.2969 103.005 34.1908 103.859C34.0848 104.714 34.3102 105.301 34.8671 105.623C35.1337 105.777 35.3555 105.865 35.5326 105.887C35.7199 105.904 35.8988 105.882 36.0692 105.819L37.1332 104.879L37.8274 105.401L36.637 107.052C36.5038 106.996 36.362 106.954 36.2114 106.927C36.0712 106.897 35.984 106.876 35.95 106.867C35.6651 106.813 35.4059 106.749 35.1724 106.674C34.9405 106.611 34.6764 106.494 34.3802 106.323Z" fill="#0B558E"/>
<path d="M48.4445 110.828L49.1873 110.826L50.5442 103.13L49.8924 102.83L50.0308 102.045L51.3525 102.278C51.4679 102.298 51.5963 102.316 51.7375 102.332C51.8788 102.348 51.9867 102.359 52.0611 102.363C52.3831 102.384 52.6474 102.413 52.854 102.45C53.4799 102.56 53.9653 102.738 54.3103 102.985C54.6553 103.232 54.8803 103.554 54.9854 103.953C55.0905 104.352 55.0901 104.852 54.9842 105.453C54.8798 106.045 54.6706 106.574 54.3565 107.04C54.0424 107.507 53.656 107.797 53.1974 107.911C53.4148 108.1 53.5836 108.404 53.7039 108.823C53.8242 109.242 53.9362 109.779 54.0399 110.435C54.1177 110.882 54.1795 111.207 54.2252 111.409C54.2785 111.605 54.3424 111.722 54.4168 111.762L54.6949 111.943L54.561 112.703L53.0115 112.429C52.9143 112.412 52.8352 112.257 52.7742 111.963C52.7209 111.662 52.6621 111.196 52.5978 110.565C52.5213 109.826 52.445 109.247 52.3687 108.826C52.2925 108.406 52.1807 108.134 52.0332 108.011L51.0944 107.845L50.5271 111.062L51.343 111.339L51.2068 112.111L48.3084 111.6L48.4445 110.828ZM52.0714 107.208C52.4177 107.269 52.7192 107.141 52.9756 106.823C53.2321 106.506 53.4224 105.995 53.5464 105.292C53.6568 104.666 53.6413 104.185 53.4998 103.851C53.3644 103.517 53.0627 103.309 52.5949 103.227C52.4247 103.197 52.2766 103.184 52.1505 103.188C52.0321 103.185 51.9546 103.18 51.9181 103.174L51.2374 107.034C51.3073 107.064 51.482 107.104 51.7615 107.153L52.0714 107.208Z" fill="#0B558E"/>
<path d="M58.3037 104.237L57.4839 104.066V103.253H62.9456L63.0788 105.457H62.3615L62.0234 104.158L59.81 104.04V107.569L61.2343 107.53L61.3983 106.454H62.0541V109.629H61.3983L61.2343 108.5L59.81 108.461V112.16L62.2898 112.003L62.8841 110.324L63.6527 110.599L63.3862 113H57.4941V112.213L58.3037 112.082V104.237Z" fill="#0B558E"/>
<path d="M66.0859 103.92L65.2582 103.893L65.1169 103.092L68.4338 102.507L68.575 103.308L67.6096 103.652L68.9695 111.364L71.1671 110.857L71.3942 108.326L72.2588 108.32L72.5206 111.684L66.7887 112.695L66.6521 111.919L67.4481 111.646L66.0859 103.92Z" fill="#0B558E"/>
<path d="M75.153 101.851L73.034 102.441L72.7195 101.577L78.2095 99.5788L78.524 100.443L76.5269 101.351L79.1366 108.521L81.2414 107.909L81.5424 108.736L76.0524 110.734L75.7469 109.895L77.7627 109.021L75.153 101.851Z" fill="#0B558E"/>
<path d="M80.959 99.3946L80.1637 99.6568L79.7571 98.9524L84.4871 96.2215L85.7044 98.0635L85.0832 98.4222L84.141 97.4666L82.1651 98.471L83.9295 101.527L85.1434 100.781L84.7475 99.7672L85.3155 99.4393L86.9028 102.189L86.3348 102.517L85.6287 101.622L84.3755 102.3L86.2252 105.503L88.2941 104.127L87.9692 102.376L88.7725 102.23L89.7421 104.442L84.6394 107.388L84.2459 106.707L84.8814 106.188L80.959 99.3946Z" fill="#0B558E"/>
<path d="M87.5449 95.1346L86.7421 95.5855L86.219 94.9621L90.8853 91.0467L92.4969 92.7956L91.8206 93.3631L90.5798 92.5195L88.661 93.941L91.0487 96.7865L92.2829 95.6994L91.7011 94.6799L92.2421 94.2259L94.3851 96.7798L93.8525 97.2266L92.9241 96.4636L91.6308 97.4802L93.8329 100.104L95.2106 99.1198L95.7168 99.7231L92.5299 102.397L92.0237 101.794L92.5902 101.147L87.5449 95.1346Z" fill="#0B558E"/>
<path d="M243.682 84.4627C246.255 84.339 248.011 83.8566 248.951 83.0156C249.891 82.1745 250.361 80.344 250.361 77.5241V43.9441C250.361 41.0005 249.804 39.0834 248.691 38.1929C247.949 37.5992 246.279 37.191 243.682 36.9684V35.0389H268.134C273.205 35.0389 277.312 35.5708 280.453 36.6345C286.538 38.7865 289.581 42.6578 289.581 48.2483C289.581 52.3793 288.06 55.6322 285.017 58.0069C282.692 59.7879 280.23 60.9258 277.633 61.4205L292.92 83.0527C293.341 83.6464 293.786 84.0421 294.256 84.24C294.726 84.4132 295.307 84.5245 296 84.574V86.3921H280.453L264.684 62.645H262.68V77.5241C262.68 80.1956 263.125 82.0014 264.016 82.9414C264.906 83.8566 266.687 84.3637 269.359 84.4627V86.3921H243.682V84.4627ZM262.68 60.1961C267.652 60.1219 271.202 59.4292 273.329 58.1182C275.481 56.7824 276.557 53.7151 276.557 48.9162C276.557 45.9725 276.149 43.6473 275.333 41.9405C273.923 39.0463 271.35 37.5992 267.615 37.5992C265.586 37.5992 264.251 37.8589 263.607 38.3784C262.989 38.8731 262.68 39.7018 262.68 40.8644V60.1961Z" fill="#0B558E"/>
<path d="M217.412 68.4705L210.139 50.8827H209.509L202.644 68.4705H217.412ZM188.915 84.4627C190.746 84.339 192.218 83.5103 193.331 81.9766C194.048 81.0119 195.075 78.8846 196.41 75.5946L213.293 34H215.408L232.365 73.9249C234.27 78.4022 235.692 81.2964 236.632 82.6074C237.572 83.8937 238.908 84.5121 240.64 84.4627V86.3921H216.039V84.4627C218.513 84.3637 220.133 84.1535 220.9 83.8319C221.691 83.5103 222.087 82.694 222.087 81.383C222.087 80.7893 221.889 79.8864 221.493 78.6743C221.246 77.9569 220.912 77.0912 220.492 76.077L218.562 71.4759H201.494C200.381 74.4938 199.663 76.4604 199.342 77.3756C198.674 79.3298 198.34 80.7522 198.34 81.6427C198.34 82.7311 199.07 83.5227 200.529 84.0174C201.395 84.2895 202.694 84.4379 204.425 84.4627V86.3921H188.915V84.4627Z" fill="#0B558E"/>
<path d="M162.497 68.4705L155.224 50.8827H154.593L147.729 68.4705H162.497ZM134 84.4627C135.831 84.339 137.302 83.5103 138.415 81.9766C139.133 81.0119 140.159 78.8846 141.495 75.5946L158.378 34H160.493L177.45 73.9249C179.355 78.4022 180.777 81.2964 181.717 82.6074C182.657 83.8937 183.993 84.5121 185.724 84.4627V86.3921H161.124V84.4627C163.597 84.3637 165.218 84.1535 165.984 83.8319C166.776 83.5103 167.172 82.694 167.172 81.383C167.172 80.7893 166.974 79.8864 166.578 78.6743C166.331 77.9569 165.997 77.0912 165.576 76.077L163.647 71.4759H146.579C145.465 74.4938 144.748 76.4604 144.426 77.3756C143.759 79.3298 143.425 80.7522 143.425 81.6427C143.425 82.7311 144.154 83.5227 145.614 84.0174C146.48 84.2895 147.778 84.4379 149.51 84.4627V86.3921H134V84.4627Z" fill="#0B558E"/>
</svg>
